<svg xmlns="http://www.w3.org/2000/svg" width="512" height="512" viewBox="0 0 49.284 49.284"><g fill="#FFF"><path d="M36.591 39.606c8.158-.328 11.784-4.041 11.784-8.585 0-3.947-2.739-7.268-8.806-8.288.027-1.468.029-2.884.029-4.206H.909c0 8.644.01 21.2 7.776 27.197-4.713.361-7.776.935-7.776 1.581 0 1.094 8.661 1.979 19.345 1.979s19.344-.885 19.344-1.979c0-.646-3.063-1.221-7.775-1.581 2.108-1.627 3.649-3.733 4.768-6.118zm2.834-13.114c3.404.789 4.012 2.458 3.973 4.619-.043 2.454-.754 4.115-5.402 4.687.841-2.987 1.239-6.194 1.429-9.306zM5.579 21.527h6.048c-2.711 8 1.863 20.658 1.862 20.658-9.888-7.579-7.91-20.658-7.91-20.658zm17.84-8.214C24.188 6.345 39.572 9.831 36.366.785c-.49-1.383-2.705-.787-2.21.609C35.562 5.36 30.22 5.843 27.5 6.752c-3.267 1.092-5.971 2.918-6.373 6.561-.162 1.468 2.132 1.452 2.292 0z"/><path d="M34.339 8.437c-3 .707-5.742 1.992-6.677 5.146-.421 1.421 1.791 2.023 2.21.609 1.032-3.483 5.607-3.541 8.528-4.389 3.137-.911 4.932-3.084 4.501-6.42-.188-1.445-2.48-1.463-2.292 0 .521 4.034-3.191 4.327-6.27 5.054z"/></g></svg>