<svg xmlns="http://www.w3.org/2000/svg" viewBox="0 0 511 511" width="512" height="512"><g fill="#FFF"><path d="M444.716 424.958L311 222.079V45.766c9.29-3.138 16-11.93 16-22.266C327 10.542 316.458 0 303.5 0h-96C194.542 0 184 10.542 184 23.5c0 10.336 6.71 19.128 16 22.266v176.313L66.284 424.958c-11.422 17.33-12.365 38.585-2.523 56.859C73.602 500.09 91.869 511 112.625 511h285.751c20.755 0 39.022-10.91 48.864-29.183 9.841-18.274 8.898-39.529-2.524-56.859zM207.5 15h96c4.687 0 8.5 3.813 8.5 8.5s-3.813 8.5-8.5 8.5h-96c-4.687 0-8.5-3.813-8.5-8.5s3.813-8.5 8.5-8.5zm226.533 459.704C426.851 488.039 413.521 496 398.375 496h-285.75c-15.146 0-28.476-7.961-35.658-21.296-7.182-13.335-6.493-28.846 1.842-41.492l134.954-204.757a7.495 7.495 0 0 0 1.238-4.127V47h81v177.328c0 1.467.43 2.902 1.238 4.127l134.954 204.757c8.333 12.646 9.022 28.157 1.84 41.492z"/><path d="M360.528 355.373a7.502 7.502 0 0 0-6.262-3.373H156.734a7.499 7.499 0 0 0-6.262 3.373l-57.469 87.195c-4.836 7.338-5.235 16.338-1.068 24.076 4.167 7.737 11.902 12.356 20.69 12.356h285.751c8.788 0 16.522-4.619 20.69-12.357 4.167-7.738 3.767-16.738-1.069-24.076l-57.469-87.194zm45.331 104.157c-1.098 2.039-3.288 4.47-7.484 4.47h-285.75c-4.196 0-6.386-2.431-7.483-4.469-1.098-2.039-1.923-5.206.386-8.708L160.774 367h189.452l55.247 83.822c2.309 3.503 1.484 6.67.386 8.708z"/><path d="M199.5 384c-12.958 0-23.5 10.542-23.5 23.5s10.542 23.5 23.5 23.5 23.5-10.542 23.5-23.5-10.542-23.5-23.5-23.5zm0 32c-4.687 0-8.5-3.813-8.5-8.5s3.813-8.5 8.5-8.5 8.5 3.813 8.5 8.5-3.813 8.5-8.5 8.5zm128-16c-12.958 0-23.5 10.542-23.5 23.5s10.542 23.5 23.5 23.5 23.5-10.542 23.5-23.5-10.542-23.5-23.5-23.5zm0 32c-4.687 0-8.5-3.813-8.5-8.5s3.813-8.5 8.5-8.5 8.5 3.813 8.5 8.5-3.813 8.5-8.5 8.5zm-48-40c-1.97 0-3.91.8-5.3 2.2a7.528 7.528 0 0 0-2.2 5.3c0 1.97.8 3.91 2.2 5.3 1.39 1.4 3.33 2.2 5.3 2.2 1.97 0 3.91-.8 5.3-2.2 1.4-1.39 2.2-3.33 2.2-5.3 0-1.97-.8-3.91-2.2-5.3a7.528 7.528 0 0 0-5.3-2.2zm-40-65c1.97 0 3.91-.8 5.3-2.2 1.4-1.39 2.2-3.33 2.2-5.3 0-1.97-.8-3.91-2.2-5.3a7.528 7.528 0 0 0-5.3-2.2c-1.97 0-3.91.8-5.3 2.2a7.528 7.528 0 0 0-2.2 5.3c0 1.97.8 3.91 2.2 5.3 1.39 1.4 3.33 2.2 5.3 2.2zm32-64c1.97 0 3.91-.8 5.3-2.2 1.4-1.39 2.2-3.33 2.2-5.3 0-1.97-.8-3.91-2.2-5.3a7.528 7.528 0 0 0-5.3-2.2c-1.97 0-3.91.8-5.3 2.2a7.528 7.528 0 0 0-2.2 5.3c0 1.97.8 3.91 2.2 5.3 1.39 1.4 3.33 2.2 5.3 2.2zm-24-64c1.97 0 3.91-.8 5.3-2.2 1.4-1.39 2.2-3.33 2.2-5.3a7.51 7.51 0 0 0-7.5-7.5c-1.97 0-3.91.8-5.3 2.2a7.528 7.528 0 0 0-2.2 5.3c0 1.97.8 3.91 2.2 5.3 1.39 1.4 3.33 2.2 5.3 2.2zm0 233a7.51 7.51 0 0 0-7.5 7.5c0 1.97.8 3.91 2.2 5.3 1.39 1.4 3.33 2.2 5.3 2.2 1.97 0 3.91-.8 5.3-2.2 1.4-1.39 2.2-3.33 2.2-5.3 0-1.97-.8-3.91-2.2-5.3a7.528 7.528 0 0 0-5.3-2.2zm-96 0c-1.97 0-3.91.8-5.3 2.2a7.528 7.528 0 0 0-2.2 5.3c0 1.97.8 3.91 2.2 5.3 1.39 1.4 3.33 2.2 5.3 2.2 1.97 0 3.91-.8 5.3-2.2 1.4-1.39 2.2-3.33 2.2-5.3 0-1.97-.8-3.91-2.2-5.3a7.528 7.528 0 0 0-5.3-2.2z"/></g></svg>